<?xml version="1.0" standalone="no"?>
<!DOCTYPE svg PUBLIC "-//W3C//DTD SVG 20010904//EN"
 "http://www.w3.org/TR/2001/REC-SVG-20010904/DTD/svg10.dtd">
<svg version="1.0" xmlns="http://www.w3.org/2000/svg"
 width="238.000000pt" height="302.000000pt" viewBox="0 0 238.000000 302.000000"
 preserveAspectRatio="xMidYMid meet">

<g transform="translate(0.000000,302.000000) scale(0.100000,-0.100000)"
fill="#000000" stroke="none">
<path d="M0 1510 l0 -1510 1190 0 1190 0 0 1510 0 1510 -1190 0 -1190 0 0
-1510z m1191 -720 c-3 -404 -6 -717 -8 -695 -3 22 -12 49 -21 60 -16 19 -16
19 1 6 16 -13 17 54 19 1375 2 1116 4 1252 8 689 3 -385 3 -1031 1 -1435z
m257 1900 c3 -7 0 -10 -6 -6 -6 3 -13 -2 -15 -11 -3 -11 -5 -7 -6 10 -1 29 18
34 27 7z m52 -7 c11 2 60 -36 59 -47 0 -7 -2 -6 -6 2 -2 6 -9 10 -13 7 -5 -3
-14 4 -20 15 -6 11 -15 18 -20 15 -11 -7 -40 5 -40 16 0 6 7 6 18 0 9 -5 19
-9 22 -8z m-848 -37 c111 -26 172 -95 172 -192 0 -68 -36 -117 -112 -152 l-55
-25 60 -22 c121 -43 187 -121 198 -233 9 -96 -7 -184 -44 -230 -49 -62 -83
-90 -146 -119 -56 -26 -70 -28 -222 -31 -159 -4 -199 3 -130 23 l32 10 0 474
0 475 -33 8 c-18 5 -30 13 -27 18 9 15 242 12 307 -4z m873 -112 c7 -70 20
-74 45 -13 9 21 16 27 23 20 8 -8 6 -15 -4 -23 -22 -18 -59 -74 -59 -88 0 -7
6 -10 14 -7 11 5 11 0 -2 -23 -9 -16 -18 -27 -19 -26 -2 1 -5 34 -7 72 -6 121
-13 155 -35 187 l-22 32 29 -33 c24 -27 31 -47 37 -98z m-88 94 c-3 -8 -6 -5
-6 6 -1 11 2 17 5 13 3 -3 4 -12 1 -19z m6 -24 c6 -6 -16 -34 -26 -34 -3 0 -3
9 0 20 5 20 15 25 26 14z m-17 -79 c-1 -30 -4 -35 -25 -35 l-23 0 23 -21 24
-21 -32 21 -31 21 2 -42 c2 -30 8 -43 21 -48 14 -5 15 -9 6 -14 -19 -12 -33 8
-36 51 -2 21 -6 46 -10 57 -7 16 -5 17 24 11 29 -6 32 -4 42 24 6 17 12 31 13
31 1 0 2 -16 2 -35z m284 -53 c0 -10 -7 -19 -15 -19 -8 0 -15 4 -15 8 0 5 -7
6 -15 3 -8 -4 -15 -3 -15 0 0 6 37 24 53 25 4 1 7 -7 7 -17z m-219 -9 c13 -16
12 -17 -3 -5 -13 10 -17 10 -21 0 -4 -8 -6 -7 -6 5 -1 9 3 17 8 17 5 0 15 -8
22 -17z m103 2 c-4 -8 -8 -15 -10 -15 -2 0 -4 7 -4 15 0 8 4 15 10 15 5 0 7
-7 4 -15z m33 -13 c-10 -10 -18 -27 -18 -38 -1 -17 -2 -17 -6 -1 -2 9 -10 15
-16 11 -7 -3 2 6 18 20 35 30 45 34 22 8z m-150 -26 c0 -24 25 -76 34 -70 5 3
9 -6 9 -20 0 -14 5 -28 10 -31 6 -4 10 8 10 30 0 20 6 43 14 50 12 12 13 9 10
-23 -3 -20 0 -44 5 -52 9 -12 12 -12 28 2 19 16 56 21 47 6 -3 -5 -9 -6 -14
-3 -5 3 -21 -6 -37 -20 -24 -21 -26 -26 -13 -35 12 -9 10 -10 -7 -5 -28 8 -29
-2 -2 -31 l20 -22 -21 -33 c-12 -19 -19 -25 -15 -14 14 37 17 65 9 66 -5 0
-17 2 -27 4 -14 3 -17 -1 -12 -18 5 -16 4 -18 -3 -8 -6 8 -17 11 -28 7 -13 -4
-11 1 8 18 41 37 29 95 -20 97 -24 2 -24 2 -4 6 12 2 22 8 22 11 0 19 -34 52
-53 53 -21 0 -21 1 -2 8 11 5 21 13 21 20 3 25 11 31 11 7z m243 -10 c0 -9
-10 -13 -29 -12 -24 2 -32 -4 -46 -33 -13 -27 -18 -32 -26 -20 -5 8 -9 19 -9
24 0 6 5 3 10 -5 8 -12 12 -9 22 17 10 26 16 31 34 27 12 -3 25 -1 28 5 10 15
16 14 16 -3z m367 8 c-3 -3 -12 -4 -19 -1 -8 3 -5 6 6 6 11 1 17 -2 13 -5z
m-83 -30 c3 -8 2 -12 -4 -9 -6 3 -10 10 -10 16 0 14 7 11 14 -7z m-287 -36
c-3 -7 -5 -2 -5 12 0 14 2 19 5 13 2 -7 2 -19 0 -25z m-7 -31 c0 -7 -7 -22
-15 -33 -13 -17 -13 -16 -3 14 13 34 18 40 18 19z m379 -26 c-24 -21 -45 -38
-47 -36 -4 4 27 65 33 65 2 0 1 -8 -2 -17 -6 -14 -2 -13 21 5 46 35 42 25 -5
-17z m-657 22 c-10 -4 -10 -8 0 -21 12 -14 11 -14 -9 -1 -13 8 -23 17 -23 21
0 5 10 8 23 7 12 0 16 -3 9 -6z m453 -53 c0 -16 -3 -30 -7 -30 -4 0 -14 -7
-22 -16 -14 -14 -19 -12 -48 15 -18 17 -28 31 -22 31 6 0 14 -3 17 -7 10 -9
57 -13 57 -4 0 4 -6 13 -12 20 -11 11 -10 13 5 8 9 -4 17 -2 17 3 0 6 3 10 8
10 4 0 7 -13 7 -30z m348 2 c-3 -12 -9 -22 -14 -22 -12 0 -11 7 3 30 15 24 19
21 11 -8z m-588 -12 c-3 -5 -16 -10 -28 -9 -20 1 -20 2 3 9 14 4 26 8 28 9 2
1 0 -3 -3 -9z m629 1 c4 -5 -3 -7 -14 -4 -23 6 -26 13 -6 13 8 0 17 -4 20 -9z
m-270 -55 c-9 -23 14 -28 28 -6 14 22 43 28 35 8 -2 -7 -10 -12 -16 -10 -6 1
-11 -4 -11 -12 0 -8 -3 -23 -6 -33 -5 -17 -5 -17 6 0 6 9 16 14 22 11 7 -4 8
-2 4 4 -4 7 -3 12 1 12 5 0 14 -9 21 -20 7 -11 22 -20 35 -21 21 -1 21 -1 -3
-9 -21 -7 -22 -8 -5 -9 20 -2 20 -2 1 -16 -20 -15 -20 -15 0 -16 10 -1 3 -5
-16 -8 l-35 -7 30 -16 c32 -18 17 -25 -16 -8 -11 6 -19 7 -19 1 0 -5 7 -12 16
-15 9 -3 14 -13 10 -21 -8 -21 68 -81 120 -94 24 -6 44 -14 44 -17 0 -3 -9 -2
-20 1 -26 8 -25 -3 2 -34 15 -17 11 -15 -12 6 -41 36 -190 145 -190 137 0 -3
7 -19 16 -37 l17 -32 -21 18 c-11 11 -25 16 -30 13 -13 -8 -22 17 -16 48 3 19
0 26 -11 26 -9 0 -13 5 -10 10 4 6 -6 10 -22 10 -24 1 -25 2 -10 11 9 5 17 17
17 24 0 8 8 15 18 16 16 0 16 1 -1 8 -10 4 -18 9 -17 11 1 3 -3 18 -9 33 -15
39 -13 47 4 17 l14 -25 1 28 c0 20 5 27 20 27 12 0 17 -5 14 -14z m-353 -8
l39 -11 -30 -18 c-40 -25 -38 -39 8 -40 32 -1 34 -2 12 -8 -14 -5 -33 -4 -43
1 -9 5 -23 6 -30 2 -6 -4 1 7 17 24 16 18 28 33 25 35 -2 2 -15 8 -29 14 -33
15 -17 16 31 1z m209 -33 c0 -5 -5 -3 -10 5 -5 8 -10 20 -10 25 0 6 5 3 10 -5
5 -8 10 -19 10 -25z m-129 -2 c13 -16 12 -17 -3 -4 -10 7 -18 15 -18 17 0 8 8
3 21 -13z m-168 -33 c7 0 20 -19 31 -41 17 -37 21 -40 50 -35 24 5 26 4 11 -3
-11 -5 -35 -10 -53 -10 -39 -1 -72 -17 -72 -34 0 -7 4 -6 10 3 7 11 10 -1 9
-40 l0 -55 -16 48 c-18 52 -33 62 -33 20 0 -22 -2 -25 -10 -13 -8 12 -10 12
-10 1 0 -8 -3 -12 -6 -9 -10 11 26 68 44 68 15 1 15 3 -3 18 -22 19 -55 67
-55 79 0 4 5 0 11 -10 6 -9 14 -15 20 -12 5 4 9 -1 9 -10 0 -9 6 -23 14 -31
18 -17 56 -19 56 -1 0 8 3 7 10 -3 17 -28 20 -2 3 28 -17 30 -54 49 -73 37 -6
-4 -10 1 -10 9 0 19 33 26 43 9 4 -7 13 -13 20 -13z m717 20 c0 -5 -4 -10 -10
-10 -5 0 -10 5 -10 10 0 6 5 10 10 10 6 0 10 -4 10 -10z m-527 -25 c-3 -9 -8
-14 -10 -11 -3 3 -2 9 2 15 9 16 15 13 8 -4z m-41 -48 c-12 -14 -18 -15 -21
-5 -2 7 -8 16 -13 19 -5 3 4 6 20 5 29 -1 30 -2 14 -19z m151 -43 c-19 -14
-30 -17 -51 -15 -7 1 -11 -3 -10 -9 2 -6 -13 -23 -32 -37 l-35 -25 30 26 c17
15 29 31 28 36 -2 5 11 17 27 27 17 9 33 26 36 37 7 20 7 20 16 -3 6 -18 4
-27 -9 -37z m51 21 c-7 -16 -24 -21 -24 -6 0 8 7 13 27 20 1 1 0 -6 -3 -14z
m9 -63 l17 -37 -27 -22 c-38 -31 -61 -29 -26 1 34 29 26 45 -8 16 -38 -31 -42
-34 -70 -49 -20 -10 -32 -10 -45 -2 -17 9 -15 10 13 11 22 0 43 10 70 35 l38
36 -29 -7 c-21 -5 -27 -4 -22 5 4 6 14 11 22 11 7 0 19 9 26 20 17 27 20 25
41 -18z m370 23 c-3 -9 -8 -14 -10 -11 -3 3 -2 9 2 15 9 16 15 13 8 -4z m-778
-127 c-10 -38 -11 -48 -2 -37 7 9 17 14 23 12 11 -4 108 44 144 70 13 10 13 9
0 -5 -16 -17 -165 -98 -181 -98 -5 0 -9 28 -9 61 0 55 2 60 16 48 13 -11 15
-9 9 17 -5 24 -4 26 4 7 7 -14 5 -38 -4 -75z m-48 40 c-3 -8 -6 -5 -6 6 -1 11
2 17 5 13 3 -3 4 -12 1 -19z m548 -14 c9 3 13 2 10 -4 -8 -14 -25 -12 -57 4
-33 17 -42 9 -22 -19 10 -14 17 -16 22 -9 5 8 22 -1 51 -27 24 -21 39 -39 34
-39 -6 0 -16 7 -23 15 -7 8 -16 15 -21 15 -5 0 -9 -7 -9 -15 0 -17 -18 -19
-38 -6 -10 6 -7 10 12 15 27 7 34 20 16 31 -14 9 -50 -13 -50 -31 0 -19 -28
-49 -38 -40 -3 4 -2 10 4 14 13 8 30 57 18 50 -5 -3 -18 -2 -29 3 -17 6 -16 8
10 9 17 2 23 4 13 7 -16 4 -16 7 4 33 l21 29 28 -21 c15 -12 35 -18 44 -14z
m-294 12 c-9 -11 -9 -15 1 -19 7 -3 3 -6 -9 -6 -27 -1 -30 14 -5 28 23 14 26
13 13 -3z m-184 -38 c-3 -8 -6 -5 -6 6 -1 11 2 17 5 13 3 -3 4 -12 1 -19z
m138 2 c-7 -11 -119 -70 -132 -70 -6 0 124 76 135 79 2 1 0 -4 -3 -9z m453
-28 c27 -33 28 -38 11 -38 -12 0 -19 7 -19 20 0 11 -7 28 -17 38 -9 10 -14 18
-10 18 3 0 19 -17 35 -38z m-348 18 c12 -8 11 -10 -7 -10 -12 0 -25 5 -28 10
-8 13 15 13 35 0z m85 -8 c-3 -3 -11 0 -18 7 -9 10 -8 11 6 5 10 -3 15 -9 12
-12z m-5 -17 c14 -8 21 -14 15 -14 -5 0 -21 6 -35 14 -14 8 -20 14 -15 14 6 0
21 -6 35 -14z m-45 -5 c3 -5 -3 -10 -15 -10 -12 0 -18 5 -15 10 3 6 10 10 15
10 5 0 12 -4 15 -10z m-309 -45 c-11 -8 -22 -12 -25 -9 -6 6 19 24 34 24 6 -1
1 -7 -9 -15z m717 8 c-7 -2 -19 -2 -25 0 -7 3 -2 5 12 5 14 0 19 -2 13 -5z
m-118 -23 c3 -11 11 -20 16 -20 6 0 7 6 3 13 -4 6 5 1 19 -12 28 -25 38 -53
12 -31 -12 10 -15 9 -15 -4 0 -14 -4 -14 -29 5 l-29 22 -35 -22 c-19 -11 -36
-20 -38 -18 -2 1 -1 -2 4 -8 5 -6 15 -5 27 3 24 15 33 15 25 2 -4 -6 6 -10 22
-11 15 0 23 -3 17 -5 -7 -3 -10 -14 -7 -24 3 -11 9 -18 13 -15 5 3 11 1 15 -5
4 -6 -10 -10 -37 -10 -32 0 -46 5 -56 20 -7 11 -17 20 -23 20 -15 0 -89 62
-89 74 0 7 3 7 8 1 4 -5 18 -19 31 -30 l23 -20 -16 38 c-15 38 -15 38 7 31 32
-9 45 -24 22 -24 -17 -1 -18 -2 -4 -10 17 -10 59 -3 59 10 0 4 10 10 21 13 15
4 20 11 16 21 -4 9 -2 16 3 16 5 0 12 -9 15 -20z m-685 -43 c0 -2 -12 -14 -27
-28 l-28 -24 24 28 c23 25 31 32 31 24z m17 -25 c-10 -10 -17 -26 -17 -35 0
-10 -8 -17 -19 -17 -18 0 -16 4 10 32 16 18 29 37 29 42 0 5 3 6 7 3 3 -4 -1
-15 -10 -25z m-67 -35 c0 -2 -17 -19 -37 -38 l-37 -34 30 37 c25 31 44 46 44
35z m104 -16 c3 -4 -6 -6 -19 -3 -14 2 -25 6 -25 8 0 8 39 4 44 -5z m36 -11
c0 -5 -2 -10 -4 -10 -3 0 -8 5 -11 10 -3 6 -1 10 4 10 6 0 11 -4 11 -10z
m-133 -7 c-4 -3 -2 -12 4 -20 9 -10 6 -13 -14 -13 -14 0 -32 -8 -39 -17 -8
-10 -34 -36 -58 -58 l-45 -40 50 54 c53 57 97 100 104 101 2 0 1 -3 -2 -7z
m107 -18 c-4 -9 0 -15 10 -15 9 0 16 -4 16 -10 0 -5 -12 -10 -27 -10 -14 0
-23 3 -19 7 4 4 -8 13 -26 19 l-33 12 33 -1 c18 0 35 3 39 6 10 11 13 8 7 -8z
m-209 -45 c-10 -11 -22 -20 -28 -20 -5 0 1 9 14 20 31 25 37 25 14 0z m172 14
c-3 -3 -12 -4 -19 -1 -8 3 -5 6 6 6 11 1 17 -2 13 -5z m-790 -300 c-3 -3 -12
-4 -19 -1 -8 3 -5 6 6 6 11 1 17 -2 13 -5z m-66 -40 c-12 -15 -22 -41 -22 -58
l-1 -31 -7 35 c-4 20 -11 42 -16 50 -7 12 -6 13 7 3 12 -11 18 -9 33 7 26 29
30 25 6 -6z m176 20 c-3 -3 -12 -4 -19 -1 -8 3 -5 6 6 6 11 1 17 -2 13 -5z
m-50 -14 c16 13 16 12 -1 -8 -15 -17 -22 -19 -28 -10 -4 7 -8 18 -8 23 0 6 4
4 9 -4 8 -13 12 -13 28 -1z m-251 -45 c-1 -36 -16 -51 -16 -16 0 18 9 51 14
51 2 0 2 -16 2 -35z m1681 12 c-2 -7 -19 -17 -38 -23 l-34 -12 -3 -465 -2
-466 61 -3 61 -3 2 -123 c1 -98 -2 -122 -13 -120 -25 5 -70 83 -88 153 l-19
70 -291 0 c-279 1 -354 7 -264 21 l41 7 0 462 0 463 -42 14 c-23 8 -44 20 -46
26 -3 9 33 12 137 12 117 0 141 -2 141 -15 0 -8 -14 -18 -32 -23 l-33 -8 -3
-467 -2 -467 135 0 135 0 -2 467 -3 467 -37 9 c-39 9 -52 33 -22 39 9 2 73 2
141 0 91 -2 123 -6 120 -15z m-1329 -43 c15 6 16 5 1 -6 -9 -7 -23 -27 -33
-45 -9 -18 -34 -58 -56 -89 -22 -32 -38 -59 -35 -62 2 -2 21 5 42 17 39 22 25
6 -28 -31 -13 -10 -17 -16 -9 -14 8 3 29 7 45 11 l30 6 -32 -20 c-25 -16 -38
-18 -63 -11 -20 6 -28 5 -24 -1 6 -10 -32 -49 -49 -49 -5 0 -7 6 -4 14 9 23
-4 27 -22 6 -9 -10 -32 -21 -51 -24 l-35 -6 30 15 c25 11 26 14 10 16 -11 1
-23 1 -27 0 -5 0 -8 10 -8 24 0 20 5 25 28 26 15 0 20 3 12 6 -29 10 -52 53
-29 53 5 0 7 -5 4 -10 -6 -9 43 -35 51 -27 2 2 -5 13 -16 25 -12 12 -18 22
-15 22 3 0 7 0 10 0 17 -1 32 30 29 56 l-5 29 15 -30 c10 -20 15 -24 15 -12 1
14 4 15 20 5 15 -9 17 -17 10 -35 -12 -32 5 -29 21 5 7 15 15 22 17 15 2 -7
-1 -22 -8 -35 l-12 -23 25 23 c13 12 27 20 30 17 12 -13 67 67 79 116 8 29 15
45 17 35 3 -11 9 -15 20 -12z m62 22 c0 -2 -9 -6 -20 -9 -11 -3 -20 -1 -20 4
0 5 9 9 20 9 11 0 20 -2 20 -4z m-453 -12 c-3 -3 -12 -4 -19 -1 -8 3 -5 6 6 6
11 1 17 -2 13 -5z m528 -85 c-5 -16 -4 -19 5 -14 13 8 13 7 -9 -37 -12 -24
-11 -30 9 -63 15 -24 25 -33 30 -25 5 8 9 7 13 -4 6 -15 -42 -100 -51 -91 -3
2 1 11 7 19 10 12 7 14 -19 10 -30 -5 -31 -4 -19 18 15 30 24 38 16 16 -4 -10
-2 -18 3 -18 17 0 16 72 -1 78 -5 2 -9 12 -9 21 0 23 -9 31 -26 24 -8 -3 -14
-18 -14 -35 0 -16 -4 -27 -9 -23 -6 3 -15 -4 -21 -15 -9 -16 -8 -22 5 -26 17
-7 20 -39 5 -49 -5 -3 -10 0 -10 7 0 7 -5 20 -10 28 -8 13 -11 12 -24 -5 -30
-40 -15 -3 19 46 19 28 35 57 35 64 0 6 12 17 26 24 14 6 24 17 21 24 -2 6 2
20 11 30 20 23 25 22 17 -4z m-82 -8 c-3 -11 -14 -22 -25 -24 -19 -5 -19 -4 3
19 27 29 29 29 22 5z m-473 -31 c6 -11 8 -20 6 -20 -3 0 -10 9 -16 20 -6 11
-8 20 -6 20 3 0 10 -9 16 -20z m646 -22 c-3 -24 -5 -46 -5 -49 -1 -4 -8 -9
-16 -13 -13 -4 -13 -2 -5 14 19 35 10 45 -14 17 -17 -20 -26 -25 -32 -16 -4 7
-3 14 3 16 6 2 9 13 6 23 -3 11 0 20 6 20 6 0 11 -6 11 -12 0 -10 3 -9 9 1 5
7 13 11 19 7 6 -4 8 2 5 14 -3 12 0 20 7 20 8 0 10 -13 6 -42z m-685 5 c13
-17 13 -17 -6 -3 -11 8 -22 16 -24 17 -2 2 0 3 6 3 6 0 17 -8 24 -17z m76 -35
c25 -28 12 -29 -26 -2 -28 19 -30 23 -12 21 12 -1 29 -9 38 -19z m500 -50 c-3
-8 -6 -5 -6 6 -1 11 2 17 5 13 3 -3 4 -12 1 -19z m-606 -37 c-12 -12 -21 -18
-21 -14 0 10 33 44 37 39 3 -2 -5 -14 -16 -25z m453 -32 c-16 -18 -16 -19 4
-19 11 0 24 5 27 10 7 12 25 4 25 -11 0 -5 -7 -9 -16 -9 -8 0 -12 -5 -8 -11 4
-8 -1 -9 -16 -4 -20 6 -22 5 -16 -11 18 -43 16 -48 -6 -21 -13 15 -30 27 -38
27 -12 -1 -12 -3 1 -13 30 -23 69 -90 70 -121 l2 -31 4 29 c3 20 7 25 13 17 4
-7 3 -26 -3 -41 l-11 -28 -13 25 c-7 14 -13 36 -13 48 0 13 -7 30 -15 38 -8 8
-12 16 -10 19 2 2 -5 10 -17 17 -19 12 -20 11 -14 -13 9 -35 2 -33 -23 9 -11
19 -25 35 -31 35 -22 0 -8 -35 47 -118 52 -80 57 -85 63 -62 6 22 8 20 14 -18
5 -24 6 -45 4 -47 -2 -2 -23 25 -48 60 -24 36 -45 63 -48 60 -3 -2 3 -16 13
-31 9 -15 12 -23 6 -20 -18 11 -49 79 -43 95 3 8 0 11 -7 7 -7 -5 -9 -1 -5 9
4 9 3 15 -2 13 -5 -1 -20 2 -34 6 l-25 9 22 8 c15 5 21 14 17 24 -4 11 0 15
16 15 41 0 119 57 121 89 1 12 3 11 6 -2 3 -10 -3 -27 -13 -38z m106 -24 c-14
-17 -30 -20 -30 -6 0 5 8 12 18 14 9 3 19 5 21 6 2 0 -2 -6 -9 -14z m-408 -35
c-5 -35 12 -61 36 -54 10 3 9 0 -3 -6 -11 -6 -29 -24 -40 -41 -11 -16 -24 -29
-29 -29 -4 0 -1 11 8 25 9 14 12 25 6 25 -8 0 -7 6 0 20 12 22 1 27 -19 8 -11
-11 -13 -10 -8 3 3 9 0 22 -6 28 -9 10 -6 11 16 6 22 -6 27 -4 27 12 0 16 8
33 15 33 1 0 0 -14 -3 -30z m448 25 c0 -2 -9 -9 -20 -15 -12 -6 -20 -7 -20 -1
0 5 8 12 18 14 9 3 18 5 20 6 1 0 2 -1 2 -4z m-100 -52 c-11 -17 -11 -17 -6 0
3 10 6 24 7 30 0 9 2 9 5 0 3 -7 0 -20 -6 -30z m33 -7 c-10 -13 -19 -23 -21
-21 -7 6 19 45 29 45 5 0 2 -11 -8 -24z m-13 -116 c-16 -59 -20 -46 -6 20 6
30 12 47 14 38 2 -9 -2 -35 -8 -58z m-230 -33 c9 -19 9 -20 -2 -6 -19 22 -44
29 -58 16 -9 -9 -9 -6 1 10 15 25 42 17 59 -20z m-250 -17 c11 -8 8 -9 -12 -4
-23 5 -28 3 -29 -12 0 -11 -3 -14 -6 -6 -2 6 -14 12 -26 13 -20 1 -20 2 3 9
35 11 53 11 70 0z m-108 -37 c-5 -25 -6 -25 -13 -8 -11 29 -10 35 5 35 9 0 12
-8 8 -27z m185 -12 c13 -19 23 -39 23 -45 -1 -6 -10 6 -21 27 -11 21 -30 42
-42 47 -19 9 -19 10 -2 7 10 -1 30 -17 42 -36z m169 6 c8 10 6 0 -5 -21 -11
-22 -18 -43 -15 -48 3 -4 1 -8 -3 -8 -5 0 -14 9 -20 20 -11 16 -10 18 2 14 12
-5 15 3 16 32 1 25 3 31 6 16 4 -23 5 -23 19 -5z m164 3 c6 -11 8 -20 6 -20
-3 0 -10 9 -16 20 -6 11 -8 20 -6 20 3 0 10 -9 16 -20z m-246 -22 c-5 -7 -9
-16 -9 -20 0 -3 -3 -10 -7 -14 -9 -8 -2 31 7 47 4 6 9 8 12 5 3 -2 1 -11 -3
-18z m338 -84 c22 -47 38 -88 35 -90 -2 -2 -21 33 -43 78 -21 46 -40 86 -42
91 -2 4 -1 7 3 7 3 0 24 -39 47 -86z m-549 42 c12 3 27 11 34 16 16 12 45 -4
67 -37 15 -22 20 -24 33 -13 14 11 15 10 9 -10 -8 -24 11 -32 20 -8 7 18 32
28 47 19 7 -4 2 -9 -13 -13 -19 -4 -26 -13 -28 -35 -4 -29 -3 -29 15 -12 11 9
30 17 43 17 19 0 21 2 10 15 -11 13 -10 14 4 9 9 -3 16 -1 16 5 0 14 37 15 45
1 4 -6 -1 -7 -11 -3 -11 4 -15 2 -11 -4 4 -6 0 -13 -8 -17 -16 -6 -20 -32 -6
-38 5 -1 3 -9 -5 -16 -12 -11 -14 -9 -14 13 0 19 -5 25 -23 25 -29 0 -47 -17
-40 -39 3 -12 1 -11 -11 3 -9 11 -16 24 -16 28 0 12 -63 -1 -75 -15 -6 -7 -17
-13 -25 -15 -27 -6 -40 -24 -41 -56 l-1 -31 -8 30 c-4 17 -8 26 -9 22 0 -5 -6
-5 -12 -2 -6 4 4 14 23 24 18 9 32 22 30 29 -1 7 9 12 23 12 14 0 28 6 31 14
3 8 12 12 20 9 21 -8 17 1 -19 42 -35 39 -57 42 -97 15 -13 -9 -13 -11 0 -20
9 -6 10 -10 3 -10 -11 0 -63 60 -63 73 0 4 9 -2 21 -14 14 -14 27 -18 42 -13z
m347 10 c0 -8 -7 -16 -15 -20 -12 -4 -13 -2 -2 14 14 24 17 25 17 6z m-388
-45 c10 -13 10 -14 -2 -3 -8 6 -27 12 -42 12 l-29 0 34 -30 c37 -32 73 -41 63
-15 -4 12 -1 12 21 -2 l26 -17 -28 -7 c-15 -5 -36 -16 -47 -26 -16 -15 -17
-18 -4 -23 11 -4 9 -8 -9 -17 -32 -14 -32 -2 1 36 l26 31 -35 0 c-24 0 -47 -9
-69 -27 -25 -21 -28 -22 -14 -5 23 26 10 28 -41 7 -36 -15 -36 -15 -19 4 13
15 14 20 4 25 -7 3 -2 3 11 0 13 -3 49 -3 79 1 l57 7 -30 24 c-17 13 -39 24
-50 24 -16 0 -17 2 -5 9 8 6 18 7 22 5 4 -3 8 -1 8 4 0 14 58 1 72 -17z m388
4 c0 -8 -7 -15 -15 -15 -13 0 -14 3 -3 15 16 18 18 18 18 0z m-558 -28 c-12
-7 -20 -16 -17 -19 4 -3 2 -9 -4 -13 -15 -9 -14 18 1 33 7 7 19 12 28 12 10
-1 7 -5 -8 -13z m295 -4 c0 -8 -12 -13 -29 -13 -37 0 -37 25 0 26 18 1 29 -4
29 -13z m430 -65 c-23 -3 -55 -7 -72 -7 -25 0 -27 2 -10 8 19 8 19 8 -5 16
-14 4 -30 15 -37 24 -6 9 -15 13 -19 8 -4 -4 -2 -7 4 -7 6 0 9 -7 6 -15 -4 -9
0 -15 8 -15 8 0 15 -7 15 -15 0 -8 -3 -15 -5 -15 -12 0 -42 34 -42 47 0 8 -20
-6 -45 -31 -46 -48 -59 -54 -71 -34 -5 7 -2 9 8 5 17 -6 52 24 43 36 -3 4 -2
5 2 2 9 -7 43 25 43 40 0 16 129 19 150 4 12 -8 10 -9 -8 -4 -13 4 -35 4 -50
0 -20 -5 -23 -8 -11 -16 7 -5 19 -9 24 -9 6 0 3 5 -5 10 -9 6 -10 10 -3 10 18
0 43 -12 39 -19 -2 -3 12 -6 31 -7 28 0 32 2 21 10 -7 6 -12 20 -10 31 4 16 7
13 22 -15 l18 -35 -41 -7z m233 -6 c0 9 5 20 10 23 6 4 10 -14 9 -47 -1 -42
-3 -48 -9 -28 l-8 25 -2 -25 c-2 -23 -3 -23 -9 6 -11 46 -21 59 -32 43 -7 -11
-9 -11 -9 2 0 28 14 31 32 7 14 -19 18 -20 18 -6z m-127 -73 l62 -62 -63 56
c-62 56 -63 56 -135 60 l-72 3 73 2 74 2 61 -61z m-790 30 c-4 -12 0 -25 8
-30 16 -10 -1 -12 -25 -3 -14 5 -14 8 1 30 19 30 23 30 16 3z m-81 -1 c-19
-19 -14 -30 7 -18 13 7 22 7 26 0 3 -5 0 -10 -7 -10 -7 0 -23 -3 -35 -6 -18
-5 -23 -2 -23 14 0 11 8 23 18 25 9 3 19 5 22 6 2 0 -1 -4 -8 -11z m941 -21
c3 13 5 10 6 -7 0 -15 6 -31 13 -38 6 -6 10 -13 7 -16 -2 -2 -26 19 -54 47
-42 42 -44 46 -13 23 33 -25 37 -25 41 -9z m-762 -42 c13 9 11 -7 -5 -27 -16
-22 -26 -23 -26 -3 0 8 4 15 10 15 5 0 7 7 4 15 -4 8 -14 15 -24 15 -20 0 -36
17 -25 28 3 3 11 0 16 -8 9 -13 12 -13 22 3 11 16 12 14 15 -13 2 -17 8 -28
13 -25z m169 30 c-26 -28 -42 -33 -34 -10 4 8 10 12 15 9 5 -3 12 2 15 10 3 9
11 16 17 16 6 0 0 -11 -13 -25z m677 -27 c-3 -8 -6 -5 -6 6 -1 11 2 17 5 13 3
-3 4 -12 1 -19z m-737 -18 c-19 -13 -30 -13 -30 0 0 6 10 10 23 10 18 0 19 -2
7 -10z m710 -5 c0 -8 -4 -15 -10 -15 -5 0 -7 7 -4 15 4 8 8 15 10 15 2 0 4 -7
4 -15z m-762 -12 c-10 -2 -26 -2 -35 0 -10 3 -2 5 17 5 19 0 27 -2 18 -5z
m817 -67 l18 -31 -27 25 c-15 14 -32 33 -38 43 -17 33 28 -3 47 -37z m-64 27
c13 -16 12 -17 -3 -4 -17 13 -22 21 -14 21 2 0 10 -8 17 -17z m48 -56 l25 -32
-32 29 c-33 31 -37 36 -24 35 4 0 18 -14 31 -32z"/>
<path d="M530 2460 l0 -170 44 0 c82 0 129 62 129 170 0 108 -47 170 -129 170
l-44 0 0 -170z"/>
<path d="M530 1965 l0 -305 38 0 c80 1 152 56 195 150 17 36 21 66 21 155 1
101 -1 115 -27 167 -44 90 -114 138 -199 138 l-28 0 0 -305z"/>
<path d="M1547 2299 c-8 -28 -3 -34 11 -16 6 7 7 19 3 26 -6 9 -10 6 -14 -10z"/>
<path d="M2020 2119 c0 -5 5 -7 10 -4 6 3 10 8 10 11 0 2 -4 4 -10 4 -5 0 -10
-5 -10 -11z"/>
<path d="M1834 2034 c-18 -14 -18 -15 4 -4 12 6 22 13 22 15 0 8 -5 6 -26 -11z"/>
<path d="M2034 1685 c27 -21 53 -21 32 0 -8 8 -23 15 -33 15 -17 -1 -17 -2 1
-15z"/>
<path d="M696 747 c3 -10 9 -15 12 -12 3 3 0 11 -7 18 -10 9 -11 8 -5 -6z"/>
</g>
</svg>
